# xmcd
#
# Track frame offsets:
#	150
#	22868
#	50841
#	88412
#	130326
#	153897
#	183188
#	208210
#	230933
#	246964
#	277215
#
# Disc length: 4355 seconds
#
# Revision: 0
# Processed by: cddbd v1.5.2PL0 Copyright (c) Steve Scherf et al.
# Submitted via: dBpowerAMP V4.0
#
DISCID=a511010b
DTITLE=The Joe McMurrian Quartet - Live at the White Eagle
DYEAR=2007
DGENRE=Blues
TTITLE0=Broken Window Blues
TTITLE1=Bogg Dog
TTITLE2=Last Fair Deal/ T for Texas
TTITLE3=Deep Water Roads/ Coo Coo Bird
TTITLE4=BrokeDown Engine
TTITLE5=Moby's Blues
TTITLE6=Blue Meadow
TTITLE7=Going Down South
TTITLE8=Bear Creek
TTITLE9=Rather Be The Devil
TTITLE10=Preach'n Son House
EXTD=The Joe McMurrian Quartet are a Delta Blues group based out of Portland, OR
EXTT0=
EXTT1=
EXTT2=
EXTT3=
EXTT4=
EXTT5=
EXTT6=
EXTT7=
EXTT8=
EXTT9=
EXTT10=
PLAYORDER=
